<svg xmlns="http://www.w3.org/2000/svg" height="1024" preserveAspectRatio="none" style="display: block;" version="1.1" viewBox="0 0 2048 2048" width="1024">
<path d="M 0 0 L 372.238 0 L 1679.69 0 L 2048 0 L 2048 373.076 L 2048 1677.7 L 2048 2048 L 1683.81 2048 L 362.317 2048 L 0 2048 L 0 1674.68 L 0 375.068 L 0 0 z" fill="rgb(24,34,34)" transform="translate(0,0)"></path>
<path d="M 957.069 1653.71 C 933.334 1652.5 901.182 1648.27 877.219 1645.56 L 766.127 1633.32 C 744.73 1630.93 717.596 1629.46 696.424 1625.11 C 693.023 1624.42 688.817 1619.2 687.318 1615.8 C 687.081 1603.4 703.732 1579.73 710.815 1567.98 L 760.424 1487.33 C 812.783 1401.65 870.496 1305.67 928.464 1224.52 C 966.929 1171.12 1007.61 1119.35 1050.39 1069.35 C 1061.85 1055.85 1074.7 1043.21 1086.73 1030.19 C 1274.62 826.786 1540.63 671.545 1818.97 648.494 C 1821.3 649.142 1822.48 649.474 1824.69 650.41 C 1619.74 746.733 1419.13 946.709 1282.99 1124.5 C 1201.3 1233.34 1127.06 1347.58 1060.77 1466.42 C 1038.21 1507.3 1016.41 1548.58 995.375 1590.26 C 986.237 1608.46 977.954 1628.14 968.287 1646.01 C 966.457 1649.39 960.674 1651.93 957.069 1653.71 z" fill="rgb(67,229,146)" transform="translate(0,0)"></path>
<path d="M 1024.93 613.578 C 1047.91 626.632 1085.16 642.905 1110.02 655.306 C 1160.63 680.551 1210.7 706.894 1260.17 734.315 C 1250.81 750.473 1242.24 767.742 1233.43 784.323 L 1188.27 869.682 C 1180.19 885.141 1172.25 901.017 1163.99 916.333 C 1157.21 928.912 1140.02 941.615 1129.12 951.699 C 1111.85 967.965 1095.02 984.699 1078.66 1001.88 C 1048.06 1034.67 1018.15 1068.09 988.952 1102.13 C 965.756 1129.62 942.77 1159.29 919.486 1187.24 C 887.26 1173.26 855.453 1158.44 823.282 1144.34 C 809.836 1138.44 796.453 1132.57 783.356 1125.93 C 782.127 1138.15 776.646 1164.64 774.382 1178.01 C 767.159 1219.49 760.304 1261.04 753.818 1302.65 C 766.352 1308.26 778.857 1313.95 791.333 1319.69 C 803.375 1325.52 816.07 1331.18 828.255 1336.81 L 760.41 1443.56 C 748.852 1461.9 737.604 1480.36 726.284 1498.84 C 720.475 1508.33 713.641 1515.35 701.597 1512.3 C 692.932 1510.12 685.153 1500.22 686.338 1491.22 C 688.418 1475.45 692.146 1459.64 695.482 1444.09 C 703.106 1409.37 711.099 1374.73 719.46 1340.18 C 736.356 1268.01 751.381 1194.46 768.363 1122.57 L 769.06 1121.96 C 772.907 1118.69 774.492 1116.82 776.902 1112.27 C 793.33 1081.25 808.508 1049.33 824.366 1017.98 L 926.846 813.267 L 988.872 687.716 C 1000.01 665.279 1015.56 636.126 1024.93 613.578 z" fill="rgb(234,234,233)" transform="translate(0,0)"></path>
<path d="M 612.711 1044.4 C 614.356 1044.08 620.481 1043.77 621.926 1044.09 C 650.379 1050.43 718.704 1127.72 721.572 1151.97 C 722.849 1162.77 707.089 1231.34 704.203 1246.18 C 690.855 1312.67 678.08 1379.26 665.879 1445.96 C 661.41 1470.42 656.646 1492.81 652.829 1517.53 C 633.249 1469.76 602.095 1418.83 573.672 1375.52 C 555.666 1347.28 527.361 1311.11 506.276 1285.23 C 474.831 1246.12 441.481 1208.58 406.347 1172.74 C 393.656 1160 327.511 1100.77 324.725 1094.02 C 323.601 1091.3 324.103 1090.5 324.97 1087.85 C 331.947 1080.84 356.763 1079.48 367.597 1078.02 L 432.688 1069.17 C 491.339 1061.11 554.172 1051.13 612.711 1044.4 z" fill="rgb(67,229,146)" transform="translate(0,0)"></path>
<path d="M 1200.47 399.366 C 1225.08 396.365 1250.59 402.4 1272.66 413.192 C 1304.77 429.065 1329.25 457.068 1340.68 491.016 C 1357.15 539.998 1342.24 572.427 1320.21 614.419 C 1312.49 629.146 1304.95 643.969 1297.6 658.884 L 1239.54 628.183 C 1180.77 596.504 1120.89 566.91 1060.03 539.459 C 1063.69 530.08 1069.89 520.455 1073.71 511.144 C 1098.67 450.372 1129.34 408.49 1200.47 399.366 z" fill="rgb(234,234,233)" transform="translate(0,0)"></path>
<path d="M 1052.36 560.332 C 1072.99 568.194 1102.92 583.438 1123.18 593.261 C 1178.52 620.3 1233.14 648.793 1286.98 678.711 C 1282.88 689.113 1275.4 703.959 1270.07 713.705 C 1263.15 712.104 1208.51 681.06 1198.02 675.62 C 1144.3 647.648 1090.03 620.738 1035.25 594.906 L 1052.36 560.332 z" fill="rgb(234,234,233)" transform="translate(0,0)"></path>
<path d="M 1818.97 648.494 C 1820.7 648.187 1827.97 646.968 1829.35 647.811 C 1829.38 647.935 1829.41 648.059 1829.44 648.183 C 1828.77 649.215 1825.8 649.995 1824.69 650.41 C 1822.48 649.474 1821.3 649.142 1818.97 648.494 z" fill="rgb(80,212,135)" transform="translate(0,0)"></path>
<metadata><recraft-signature>{"signed_by": "recraft", "signature_b64": "d1/I0yXMkaANP9l+VpkTkOE4Fx763jyjBxJLvNwnsN769sQ9AwxrIltAJCL7BmIfD/lNpXincpXF2GKHxwTUAQ==", "signing_algo": "Ed25519", "generation_timestamp": 1776326352, "identifier": "fc4a7eee-b99e-4b4c-8e62-405030029c2b"}</recraft-signature></metadata></svg>